HIERARCHY
ROOT root
{
	OFFSET 0.000000 0.000000 0.000000
	CHANNELS 6 Xposition Yposition Zposition Zrotation Yrotation Xrotation
	JOINT lhip
	{
		OFFSET 0.058581 -0.082280 -0.017664
		CHANNELS 3 Zrotation Yrotation Xrotation
		JOINT lknee
		{
			OFFSET 0.043451 -0.386469 0.008037
			CHANNELS 3 Zrotation Yrotation Xrotation
			JOINT lankle
			{
				OFFSET -0.014790 -0.426874 -0.037428
				CHANNELS 3 Zrotation Yrotation Xrotation
				JOINT ltoe
				{
					OFFSET 0.041054 -0.060286 0.122042
					CHANNELS 3 Zrotation Yrotation Xrotation
					End Site
					{
						OFFSET 0.000000 0.000000 0.000000
					}
				}
			}
		}
	}
	JOINT rhip
	{
		OFFSET -0.060310 -0.090513 -0.013543
		CHANNELS 3 Zrotation Yrotation Xrotation
		JOINT rknee
		{
			OFFSET -0.043257 -0.383688 -0.004843
			CHANNELS 3 Zrotation Yrotation Xrotation
			JOINT rankle
			{
				OFFSET 0.019056 -0.420046 -0.034562
				CHANNELS 3 Zrotation Yrotation Xrotation
				JOINT rtoe
				{
					OFFSET -0.034840 -0.062106 0.130323
					CHANNELS 3 Zrotation Yrotation Xrotation
					End Site
					{
						OFFSET 0.000000 0.000000 0.000000
					}
				}
			}
		}
	}
	JOINT lowerback
	{
		OFFSET 0.004439 0.124404 -0.038385
		CHANNELS 3 Zrotation Yrotation Xrotation
		JOINT upperback
		{
			OFFSET 0.004488 0.137956 0.026820
			CHANNELS 3 Zrotation Yrotation Xrotation
			JOINT chest
			{
				OFFSET -0.002265 0.056032 0.002855
				CHANNELS 3 Zrotation Yrotation Xrotation
				JOINT lowerneck
				{
					OFFSET -0.013390 0.211636 -0.033468
					CHANNELS 3 Zrotation Yrotation Xrotation
					JOINT upperneck
					{
						OFFSET 0.010113 0.088937 0.050410
						CHANNELS 3 Zrotation Yrotation Xrotation
						End Site
						{
							OFFSET 0.000000 0.000000 0.000000
						}
					}
				}
				JOINT lclavicle
				{
					OFFSET 0.071702 0.114000 -0.018898
					CHANNELS 3 Zrotation Yrotation Xrotation
					JOINT lshoulder
					{
						OFFSET 0.122921 0.045205 -0.019046
						CHANNELS 3 Zrotation Yrotation Xrotation
						JOINT lelbow
						{
							OFFSET 0.255332 -0.015649 -0.022946
							CHANNELS 3 Zrotation Yrotation Xrotation
							JOINT lwrist
							{
								OFFSET 0.265709 0.012698 -0.007375
								CHANNELS 3 Zrotation Yrotation Xrotation
								End Site
								{
									OFFSET 0.000000 0.000000 0.000000
								}
							}
						}
					}
				}
				JOINT rclavicle
				{
					OFFSET -0.082954 0.112472 -0.023707
					CHANNELS 3 Zrotation Yrotation Xrotation
					JOINT rshoulder
					{
						OFFSET -0.113228 0.046853 -0.008472
						CHANNELS 3 Zrotation Yrotation Xrotation
						JOINT relbow
						{
							OFFSET -0.260127 -0.014369 -0.031269
							CHANNELS 3 Zrotation Yrotation Xrotation
							JOINT rwrist
							{
								OFFSET -0.269108 0.006794 -0.006027
								CHANNELS 3 Zrotation Yrotation Xrotation
								End Site
								{
									OFFSET 0.000000 0.000000 0.000000
								}
							}
						}
					}
				}
			}
		}
	}
}
MOTION
Frames: 16
Frame Time: 0.033333
-0.573016 0.792113 0.929930 -4.846926 -1.535851 81.774073 8.105327 11.368728 -5.204869 -13.674618 13.620761 34.586474 5.658023 14.276046 -30.718724 0.000000 -0.000000 0.000000 -5.303527 -8.681439 -7.887409 8.152110 -4.505007 43.073344 1.586002 -9.233425 -35.969098 0.000000 -0.000000 0.000000 -1.144953 0.650135 8.671549 2.789319 -2.742500 0.046154 -1.247730 -1.143331 2.190780 4.964628 8.468333 -9.622414 -3.354275 0.624898 9.228257 -23.084057 2.807680 -0.355150 -20.972089 4.802298 16.119380 -45.128827 -41.760384 60.389083 -13.760262 -20.439701 15.370967 22.917465 -1.280875 -3.307316 16.128527 5.307566 17.940630 60.254995 56.921850 86.383511 33.472421 10.980309 19.231523 
-0.574922 0.790481 0.945771 -5.133768 -1.403502 82.335424 7.175643 10.498907 -3.513200 -12.755476 12.715177 29.823376 4.780985 14.450249 -27.912976 0.000000 -0.000000 0.000000 -4.500735 -8.324983 -5.830271 7.517285 -3.716966 37.752415 1.976501 -8.936043 -33.275085 0.000000 -0.000000 0.000000 -1.002372 0.836315 7.487997 2.780582 -2.824655 -0.347036 -1.168742 -1.015956 1.752334 4.360110 8.244963 -9.038469 -2.764702 0.504821 8.984361 -22.789929 2.890340 0.189340 -22.464624 4.089503 16.719114 -44.314224 -42.090361 60.283333 -13.120983 -20.434538 13.677968 22.957910 -2.115404 -3.151894 18.444310 4.331098 18.346448 54.332540 54.804347 81.553863 33.162149 9.858961 18.413434 
-0.577022 0.788719 0.960214 -5.231997 -1.306313 83.064574 5.895671 9.085815 -2.211314 -11.636660 11.641269 25.135259 4.222787 15.261075 -24.610121 0.000000 -0.000000 0.000000 -3.508064 -7.655759 -3.955426 6.830602 -3.014231 32.472365 2.277710 -8.980540 -30.445498 0.000000 -0.000000 0.000000 -0.711495 0.930648 6.378299 2.513128 -2.841568 -1.088751 -1.160999 -0.885986 1.385800 3.946170 7.975185 -8.848786 -1.965741 0.648086 9.644913 -22.137131 2.782394 0.509792 -24.714004 3.543785 17.431623 -42.523134 -42.023906 59.176899 -12.351253 -20.386289 12.883916 22.619638 -2.524621 -3.016585 21.727477 3.259985 19.042260 47.554435 51.894392 75.399099 32.249864 9.077899 18.943016 
-0.578590 0.788018 0.972837 -5.363490 -1.338660 83.677601 4.436192 7.676279 -1.202684 -9.897278 10.980010 21.312484 3.903829 15.312021 -21.552891 0.000000 -0.000000 0.000000 -2.765638 -7.215510 -2.078789 5.998577 -2.294447 27.329334 2.596508 -8.292599 -27.265380 0.000000 -0.000000 0.000000 -0.468443 1.295354 5.471996 2.327617 -2.890021 -1.518909 -0.960232 -0.838798 0.977001 3.270966 7.667476 -9.168281 -1.391713 0.667287 9.782113 -21.715663 2.264609 0.576883 -28.673114 2.496696 17.712195 -37.960264 -40.671823 55.604930 -10.995298 -20.128242 12.691702 22.556168 -2.553138 -2.194550 25.794250 2.559780 19.043984 38.372976 47.912480 67.248558 31.375690 8.238483 19.671331 
-0.579793 0.788977 0.977143 -5.773617 -1.485878 83.762144 3.985426 7.146059 -0.437528 -9.605758 10.107541 19.699755 3.541082 14.972031 -20.640134 0.000000 -0.000000 0.000000 -2.584989 -7.137887 -1.298192 5.633587 -1.965904 25.330033 2.628908 -7.903940 -26.396706 0.000000 -0.000000 0.000000 -0.392752 1.527474 5.793044 2.123754 -2.704941 -2.082992 -0.887187 -0.610653 0.695432 2.955137 7.977458 -9.912252 -1.168549 0.617863 10.408785 -21.998052 1.934178 0.333021 -30.635713 1.965305 17.690327 -34.652103 -39.337195 52.400724 -9.015401 -20.215850 12.619068 23.114041 -2.293403 -2.118089 27.870147 2.210257 19.151627 33.356763 44.792977 62.666887 30.024243 7.878494 20.454857 
-0.580916 0.791005 0.978163 -6.260977 -1.630982 84.035230 3.714611 6.362829 -0.477901 -9.643861 8.945728 19.289190 3.655043 14.503584 -20.298375 0.000000 -0.000000 0.000000 -2.493394 -7.104498 -1.172926 5.504479 -1.627769 24.153301 2.517259 -7.408954 -25.800042 0.000000 -0.000000 0.000000 -0.323301 1.839591 5.597992 2.010946 -2.539997 -2.025487 -0.829497 -0.343125 0.609827 2.667768 8.378939 -11.193288 -1.328528 0.462026 10.818971 -22.656104 1.488413 0.014435 -33.569151 0.840192 17.314410 -29.464270 -37.138633 47.538409 -6.887285 -19.945711 13.173573 24.428619 -1.635183 -1.688109 30.176669 2.631000 18.911575 27.001263 40.235467 56.537447 28.985445 7.369940 21.573677 
-0.581883 0.793814 0.975920 -6.915231 -1.507446 83.807543 4.040857 6.047669 -0.008018 -10.035426 8.125384 19.152237 3.842890 14.396604 -21.992562 0.000000 -0.000000 0.000000 -2.282170 -6.943399 -1.529156 5.583950 -1.508953 24.964909 2.530739 -7.151999 -26.092974 0.000000 -0.000000 0.000000 0.022428 1.767210 6.095274 1.934219 -2.187831 -2.108903 -0.812562 -0.085043 0.772405 2.843952 8.817325 -12.589832 -1.804710 0.453088 11.658847 -23.913617 1.295753 -0.489135 -36.183972 -0.241521 16.647170 -24.095432 -34.070537 42.541178 -4.061645 -19.640141 14.014849 26.364148 -0.428483 -1.343853 31.843132 3.739716 18.659933 21.576031 34.221699 51.045765 27.499457 7.015590 22.889705 
-0.582468 0.796879 0.970337 -7.647698 -1.681634 83.532187 4.123259 6.395418 -0.118707 -10.367899 8.578146 20.017104 4.422353 14.596713 -23.673206 0.000000 -0.000000 0.000000 -2.562107 -6.433384 -2.911957 5.828490 -2.065882 27.732072 2.363308 -6.727629 -27.445486 0.000000 -0.000000 0.000000 -0.136938 1.721553 6.823226 1.963676 -1.735048 -2.145247 -0.688367 0.114792 0.864360 2.841575 9.358049 -13.768475 -2.364924 0.301359 12.329240 -24.912995 0.738914 -0.579546 -39.048773 -1.075812 15.938166 -18.911139 -30.727077 37.303630 -0.646621 -19.757939 14.806362 28.037392 0.937126 -0.919316 34.038770 5.077477 18.321234 16.562624 28.066363 46.230946 25.976554 6.484833 24.658594 
-0.583714 0.800625 0.963227 -7.335152 -1.813356 82.619489 4.897018 6.905532 -0.954748 -11.107432 8.954426 23.195087 4.559827 14.079584 -25.017093 0.000000 -0.000000 0.000000 -2.878366 -6.574242 -3.748221 6.035226 -2.725272 30.972761 1.587934 -6.460752 -29.118682 0.000000 -0.000000 0.000000 -0.511191 1.329430 8.384234 2.004963 -2.029176 -2.069108 -0.498763 0.130198 0.852747 3.044925 9.824998 -14.653040 -2.618653 0.186285 13.021817 -25.963579 -0.093219 -0.620000 -41.504519 -1.354303 15.060447 -14.687756 -26.947499 32.905934 1.634069 -19.523116 14.404091 29.783078 2.511491 -0.678980 36.065095 6.545232 17.572906 12.811835 22.062635 41.964482 24.074994 5.633679 26.108678 
-0.584657 0.804108 0.952743 -6.778881 -1.563920 81.562893 6.329726 7.360908 -2.140327 -11.894814 9.745387 27.608180 4.896723 13.217717 -27.113948 0.000000 -0.000000 0.000000 -2.852840 -6.758163 -4.579649 6.066124 -3.766757 34.704875 0.875806 -6.554673 -31.128342 0.000000 -0.000000 0.000000 -0.512772 1.218823 9.782072 2.336089 -2.390904 -1.419974 -0.395162 -0.047052 1.007077 3.160309 10.125022 -15.589361 -2.985111 0.064160 13.356912 -27.326089 -1.310454 -0.397448 -44.126670 -1.822676 14.264985 -11.107093 -22.375060 29.183220 4.238415 -19.693073 14.077035 31.820772 3.946248 -0.264832 37.945753 8.002768 16.403687 8.585760 17.045786 37.531139 22.133598 5.464430 27.377692 
-0.585155 0.806008 0.945305 -6.415983 -1.456833 80.598971 7.215618 7.863244 -2.206355 -12.353737 10.034958 29.907107 5.081278 12.672376 -28.337176 0.000000 -0.000000 0.000000 -2.858397 -6.840095 -4.633497 5.966389 -4.102105 36.869431 0.525845 -6.738588 -32.322115 0.000000 -0.000000 0.000000 -0.660608 1.342153 11.167885 2.692543 -2.641366 -0.919365 -0.246124 -0.315464 0.853423 3.379168 10.233969 -15.982081 -3.509731 -0.067666 13.382438 -28.392476 -2.171959 -0.160873 -45.471695 -1.605735 14.082998 -10.221062 -19.086921 28.423401 5.535440 -19.721210 14.426601 33.171363 4.640366 -0.058293 38.757498 8.694344 15.897246 6.894582 15.553684 35.087892 20.326590 5.554979 27.580883 
-0.585611 0.807788 0.940524 -6.013057 -1.205204 80.622234 8.194936 8.135167 -3.021987 -12.871336 10.699275 31.326713 5.026005 11.558208 -28.840141 0.000000 -0.000000 0.000000 -2.494256 -6.449015 -5.353696 5.864797 -4.541996 38.139551 0.319364 -6.955636 -32.938274 0.000000 -0.000000 0.000000 -0.876804 1.242982 11.675915 3.160479 -2.881927 -0.869956 -0.136806 -0.527623 0.603844 3.821476 10.508280 -15.941287 -3.826994 -0.256251 13.585114 -29.100949 -2.011398 0.457304 -46.540617 -0.926036 14.127718 -10.267555 -17.668809 29.313472 4.903284 -19.596297 14.731855 34.019142 4.473709 0.050113 39.515545 9.006317 15.917849 6.172254 16.372283 34.169231 18.974987 6.397593 26.834006 
-0.582261 0.807746 0.939947 -5.562127 -1.880475 81.287560 7.153977 9.326517 -3.985441 -12.968667 9.981807 31.566803 4.539331 10.913082 -29.143442 0.000000 -0.000000 0.000000 -3.364785 -6.431213 -6.552000 5.651456 -4.820504 38.829916 0.329056 -6.412015 -32.950125 0.000000 -0.000000 0.000000 -1.853146 0.319787 11.241510 3.378308 -3.077027 -0.930119 -0.101366 -0.467679 0.551501 4.267737 10.759134 -15.722944 -3.814666 -0.110803 13.466984 -29.783664 -1.248897 1.022791 -46.279869 0.775627 14.325821 -12.183458 -18.177790 30.738254 4.560828 -19.287711 15.359446 34.597673 3.832149 -0.056150 39.375824 8.952039 16.456344 6.856023 20.087569 36.418630 19.923376 5.007467 28.506478 
-0.581599 0.803577 0.944113 -6.004616 -1.016356 80.915305 7.168572 8.543511 -2.577740 -12.038459 9.350913 30.097870 5.095373 12.140483 -28.876897 0.000000 -0.000000 0.000000 -2.271414 -6.041301 -5.034711 5.890133 -3.810288 37.046831 0.140301 -7.074815 -31.780788 0.000000 -0.000000 0.000000 -0.785153 0.287007 10.919198 3.444747 -3.370915 -0.564982 -0.197525 -0.702824 0.893696 4.660839 10.693289 -15.380705 -3.888058 -0.057214 13.450712 -29.524981 -0.423307 1.746067 -45.878657 2.601115 14.630638 -15.749510 -18.927438 34.353909 -0.885197 -19.582786 13.710979 33.750391 3.177735 -0.301525 39.567921 8.186712 17.154006 7.577659 24.744582 39.108129 20.532072 4.599534 30.146607 
-0.578950 0.800918 0.951827 -6.301908 -1.022531 81.307321 6.188539 7.701255 -1.457620 -11.654626 8.884098 27.394831 5.247889 13.189975 -28.000245 0.000000 -0.000000 0.000000 -2.506220 -5.813896 -4.054537 6.276797 -3.205256 34.573203 0.848484 -7.479578 -30.096612 0.000000 -0.000000 0.000000 -0.686380 0.305241 10.027232 3.609629 -3.865846 -0.272883 -0.381605 -0.998546 0.726146 5.328960 10.777154 -14.226022 -3.670448 0.414777 12.908175 -29.862183 0.553035 2.704823 -43.056298 4.867382 16.232253 -21.707141 -22.180751 39.503254 -3.451626 -19.228451 13.830714 33.068332 2.120158 -0.622922 38.612284 6.534102 18.100400 9.593177 30.350953 40.259509 20.534010 4.629782 29.267609 
-0.575448 0.798007 0.961510 -6.660614 -1.027809 81.845181 4.738156 7.027351 -0.225751 -10.739142 7.799946 24.024991 5.357460 13.948340 -27.165786 0.000000 -0.000000 0.000000 -2.527280 -5.528139 -3.738308 6.134450 -2.621681 32.807350 1.576425 -7.542558 -27.140983 0.000000 -0.000000 0.000000 -0.538832 0.055756 8.852268 3.659340 -4.316693 0.047039 -0.584788 -1.236346 0.727165 5.796142 10.919662 -13.008041 -3.430573 1.004808 12.126159 -29.606658 1.043792 3.644620 -40.729550 6.088395 17.543912 -27.075887 -23.634305 45.471561 -9.662894 -17.669929 15.787453 32.222517 1.032190 -0.672667 37.795601 5.130119 18.031152 10.630934 35.011822 39.923633 22.090148 4.672381 27.826241 
